<?xml version="1.0" encoding="UTF-8"?>
<!DOCTYPE svg PUBLIC "-//W3C//DTD SVG 1.1//EN" "http://www.w3.org/Graphics/SVG/1.1/DTD/svg11.dtd">
<!-- Creator: CorelDRAW -->
<svg xmlns="http://www.w3.org/2000/svg" xml:space="preserve" width="84.7105mm" height="127.82mm" version="1.1" style="shape-rendering:geometricPrecision; text-rendering:geometricPrecision; image-rendering:optimizeQuality; fill-rule:evenodd; clip-rule:evenodd"
viewBox="0 0 562.41 848.63"
 xmlns:xlink="http://www.w3.org/1999/xlink"
 xmlns:xodm="http://www.corel.com/coreldraw/odm/2003">
 <defs>
  <style type="text/css">
   <![CDATA[
    .fil0 {fill:black;fill-rule:nonzero}
    .fil1 {fill:#F2F2F2;fill-rule:nonzero}
   ]]>
  </style>
 </defs>
 <g id="Layer_x0020_1">
  <metadata id="CorelCorpID_0Corel-Layer"/>
  <g id="_2203794479952">
   <path class="fil0" d="M562.41 280.48c0,-133.35 -114.69,-280.48 -282.57,-280.48 -150.19,0 -279.84,125.13 -279.84,280.48 0,101.91 84.79,209.95 160.15,309.25l115.11 156.69 126.8 -160.33c76.39,-100.79 160.36,-204.27 160.36,-305.61z"/>
   <path class="fil0" d="M356.65 661.5l-1.49 -0.27 -80.12 110.35 -81.64 -108.86 -1.91 0.42c-67.74,15.3 -107.19,47.04 -107.19,88.83 0,49.04 75.11,96.66 191.16,96.66 108.62,0 196.51,-43.19 196.51,-96.66 0,-38.06 -44.46,-75.51 -115.32,-90.47l0 -0z"/>
   <path class="fil1" d="M279.32 431.16c71.29,0 126.76,-61.03 126.76,-122.64 0,-64.03 -53.93,-126.52 -126.76,-126.52 -68.65,0 -125.52,57.93 -125.52,126.52 0,64.03 54.23,122.64 125.52,122.64z"/>
  </g>
 </g>
</svg>
