<?xml version='1.0' encoding='utf-8'?>
<svg xmlns="http://www.w3.org/2000/svg" xml:space="preserve" width="84.7105mm" height="127.82mm" version="1.1" style="shape-rendering:geometricPrecision; text-rendering:geometricPrecision; image-rendering:optimizeQuality; fill-rule:evenodd; clip-rule:evenodd" viewBox="0 0 562.41 848.63">
 <defs>
  <style type="text/css">
   
    .fil0 {fill:black;fill-rule:nonzero}
    .fil1 {fill:#F2F2F2;fill-rule:nonzero}
   
  </style>
 </defs>
 <g id="Layer_x0020_1">
  <metadata id="CorelCorpID_0Corel-Layer" />
  <g id="_2203794479952">
   <path class="fil0" d="M 562.41,280.48 C 562.41,147.13000000000002 447.71999999999997,0.0 279.84,0.0 C 129.64999999999998,0.0 0.0,125.13 0.0,280.48 C 0.0,382.39 84.79,490.43 160.15,589.73 L 261.28147222158873,727.3921525705912 A 18.00000000000577,18.00000000000577 0.0 0,0 289.906055423335,727.901056261646 L 402.06,586.09 C 478.45,485.3 562.4200000000001,381.82000000000005 562.4200000000001,280.48 L 562.41,280.48" />
   <path class="fil0" d="M 356.65,661.5 L 356.57549999999986,661.4865 A 2.2892815963642787,2.2892815963642787 0.0 0,0 354.31481287917575,662.3940838589984 L 289.37115904613825,751.8415651430186 A 18.000000000004526,18.000000000004526 0.0 0,1 260.40514898438687,752.0656702405728 L 194.51466705573904,664.2063137639362 A 2.8864991952915595,2.8864991952915595 0.0 0,0 191.5855000000001,663.1189999999999 L 191.48999999999998,663.14 C 123.74999999999999,678.4399999999999 84.29999999999998,710.18 84.29999999999998,751.97 C 84.29999999999998,801.01 159.40999999999997,848.63 275.46,848.63 C 384.08,848.63 471.96999999999997,805.44 471.96999999999997,751.97 C 471.96999999999997,713.9100000000001 427.51,676.46 356.65,661.5 L 356.65,661.5" />
   <path class="fil1" d="M279.32 431.16c71.29,0 126.76,-61.03 126.76,-122.64 0,-64.03 -53.93,-126.52 -126.76,-126.52 -68.65,0 -125.52,57.93 -125.52,126.52 0,64.03 54.23,122.64 125.52,122.64z" />
  </g>
 </g>
</svg>