<?xml version='1.0' encoding='utf-8'?>
<svg xmlns="http://www.w3.org/2000/svg" xml:space="preserve" width="132.116mm" height="23.1272mm" version="1.1" style="shape-rendering:geometricPrecision; text-rendering:geometricPrecision; image-rendering:optimizeQuality; fill-rule:evenodd; clip-rule:evenodd" viewBox="0 0 5792.1 1013.92">
 <defs>
  <style type="text/css">
   
    .fil0 {fill:#03319F;fill-rule:nonzero}
   
  </style>
 </defs>
 <g id="Layer_x0020_1">
  <metadata id="CorelCorpID_0Corel-Layer" />
  <path class="fil0" d="M 429.55312994231633,269.51 L 320.1818603419114,269.51 A 13.635724857216614,13.635724857216614 0.0 0,1 306.3859219581623,256.66134031800385 C 306.3298399530689,255.39965269404328 306.29999999999995,254.27749517086602 306.29999999999995,253.29 C 306.29999999999995,161.25 275.43999999999994,115.17999999999998 213.49999999999994,115.17999999999998 C 180.45999999999995,115.17999999999998 156.49999999999994,128.20999999999998 141.85999999999996,154.53999999999996 C 133.15999999999997,170.17999999999995 127.59999999999995,187.57999999999996 125.83999999999996,206.59999999999997 C 124.26999999999997,223.80999999999997 123.45999999999997,244.15999999999997 123.45999999999997,267.73999999999995 L 123.45999999999997,531.6999999999999 C 123.45999999999997,586.6999999999999 127.82999999999997,625.8799999999999 136.71999999999997,649.2199999999999 C 149.78999999999996,683.4499999999999 176.07999999999998,700.4699999999999 215.86999999999998,700.4699999999999 C 278.58,700.4699999999999 309.85999999999996,648.8299999999999 309.85999999999996,545.53 C 310.06278753306526,543.9219304395524 310.21874394911094,542.0556568825641 310.3355242995238,539.9352320032987 A 14.549312179564168,14.549312179564168 0.0 0,1 324.6299999999909,525.9399999999999 L 419.33637270135097,525.9399999999999 A 13.923259763733856,13.923259763733856 0.0 0,1 433.2848522533959,539.7428363372633 C 433.3299999999999,546.3800220382833 433.3299999999999,551.6231687052532 433.3299999999999,555.42 C 433.3299999999999,631.81 417.87999999999994,692.38 386.8299999999999,737.0699999999999 C 350.6099999999999,789.51 293.41999999999996,815.65 215.86999999999992,815.65 C 133.33999999999992,815.65 74.18999999999991,786.36 38.34999999999991,727.79 C 19.37999999999991,697.3199999999999 8.069999999999908,663.28 4.539999999999907,625.8599999999999 C 1.5499999999999066,594.9999999999999 -0.020000000000092832,558.0099999999999 -0.020000000000092832,514.8499999999999 L -0.020000000000092832,293.2599999999999 C -0.020000000000092832,217.66999999999987 4.729999999999907,165.03999999999988 14.429999999999907,135.7499999999999 C 31.02999999999991,83.07999999999988 62.119999999999905,45.51999999999988 107.2299999999999,23.12999999999988 C 138.6599999999999,7.719999999999882 174.1199999999999,-0.020000000000116813 214.0599999999999,-0.020000000000116813 C 281.32999999999987,-0.020000000000116813 333.57999999999987,20.55999999999988 371.1799999999999,61.91999999999988 C 410.1599999999999,105.65999999999988 429.7499999999999,166.40999999999988 429.7499999999999,243.95999999999987 C 429.7499999999999,250.08999999999986 429.7499999999999,258.59999999999985 429.5599999999999,269.4899999999999 L 429.5609999999999,269.49099999999993 A 0.011129942314631922,0.011129942314631922 0.0 0,1 429.55312994231633,269.51 M 895.1714999999871,803.78 L 790.6480470007576,803.78 A 13.004047186123088,13.004047186123088 0.0 0,1 777.8883278122051,794.3888653959089 C 775.9856013316858,787.2682157328057 774.4990461281125,779.3161728863092 773.4406063294742,770.5228699680808 A 16.016345229803008,16.016345229803008 0.0 0,0 746.5489247852969,760.4965400804933 C 737.9002219179641,768.8768998116033 729.826186892293,776.0030483898543 722.2400000000001,781.82 C 696.1000000000001,802.0200000000001 668.0000000000001,812.11 637.7600000000001,812.11 C 601.1500000000001,812.11 572.8200000000002,799.23 552.8500000000001,773.32 C 530.0800000000002,744.23 518.6200000000001,705.0500000000001 518.6200000000001,655.6 C 518.6200000000001,613.82 528.5100000000001,579.01 548.1000000000001,551.11 C 570.0600000000002,519.83 615.3700000000001,488.40000000000003 684.0600000000002,456.73 C 700.2275627934832,449.18513736304124 726.4964071769066,437.5306934980384 762.9788419950289,421.95919785314965 A 14.019728796846692,14.019728796846692 0.0 0,0 771.5000000000002,409.0681844346615 L 771.5000000000002,387.05000000000007 C 771.5000000000002,357.19000000000005 767.3600000000002,336.4100000000001 758.8500000000003,324.5300000000001 C 748.7700000000002,310.8900000000001 733.7100000000003,303.9500000000001 713.5400000000002,303.9500000000001 C 689.9600000000002,303.9500000000001 672.5600000000002,313.0700000000001 661.2900000000002,331.4700000000001 C 655.5780450887711,340.902133037851 651.6341261933227,355.1912845558352 649.3077075588567,374.16461720585085 A 14.48187502695988,14.48187502695988 0.0 0,1 635.0803781596308,387.05000000000007 L 546.6946336237837,387.05000000000007 A 13.534259260930128,13.534259260930128 0.0 0,1 533.0889095517049,371.9400704104658 C 538.9867212416727,326.3616641124376 554.093552824769,290.4724349076249 578.3800000000002,264.3900000000001 C 614.3700000000002,225.7900000000001 664.2500000000002,206.6300000000001 728.3700000000002,206.6300000000001 C 783.0000000000002,206.6300000000001 823.1700000000002,221.65000000000012 849.4600000000003,251.7500000000001 C 864.9100000000003,269.92000000000013 874.4100000000003,289.73000000000013 877.7500000000002,311.2800000000001 C 880.5500000000002,329.11000000000007 881.9300000000002,352.4500000000001 881.9300000000002,381.3500000000001 L 881.9300000000002,643.9300000000001 C 881.5100000000002,714.58 886.0700000000002,767.7800000000001 895.2000000000002,803.8100000000001 L 895.2000000000002,803.8085000000001 A 0.028500000006658865,0.028500000006658865 0.0 0,0 895.1714999999871,803.78 M 771.491622565315,500.04447979776444 C 734.5056062942955,519.822841590822 705.4084033018222,538.641374745807 684.26,556.8499999999999 C 651.41,584.9499999999999 634.97,615.42 634.97,648.2699999999999 C 634.97,667.8599999999999 640.14,683.6899999999998 650.61,695.7299999999999 C 661.5,708.42 674.95,714.7399999999999 691.16,714.7399999999999 C 721.2385543632518,714.7399999999999 747.4046591234126,698.275887914266 769.3142082303642,665.1303336058812 A 13.485218671615254,13.485218671615254 0.0 0,0 771.51,657.6822373789646 L 771.51,500.0399999999999 L 771.5095,500.0399999999999 A 0.0379110588087332,0.0379110588087332 0.0 0,0 771.491622565315,500.04447979776444 M 995.3199999999999,803.7705000000037 L 995.3199999999999,25.880000000012842 A 14.00000000000523,14.00000000000523 0.0 0,1 1009.3199999999975,11.879999999999995 L 1091.7200000000023,11.879999999999995 A 14.00000000001236,14.00000000001236 0.0 0,1 1105.72,25.88000000002699 L 1105.72,239.80507024209032 A 14.947294138907306,14.947294138907306 0.0 0,0 1130.2146101467722,250.97830579714298 C 1167.4672389613484,221.44013302440126 1202.9072560152388,206.60999999999996 1236.74,206.60999999999999 C 1281.44,206.60999999999999 1313.1,226.76999999999998 1331.73,267.33 C 1343.38,291.86 1350.52,318.01 1352.7,345.90999999999997 C 1355.0800000000002,373.59 1356.26,404.05999999999995 1356.26,437.71999999999997 L 1356.26,579.78 C 1356.26,637.16 1353.27,678.52 1347.52,704.05 C 1331.5,776.0799999999999 1294.7,812.1099999999999 1236.74,812.1099999999999 C 1203.1735652506868,812.1099999999999 1167.7719773633562,796.9479783172678 1130.245463367168,766.7799665514868 A 14.923099180537939,14.923099180537939 0.0 0,0 1105.72,777.884256172593 L 1105.72,789.7900000000031 A 13.999999999997272,13.999999999997272 0.0 0,1 1091.7200000000023,803.79 L 995.32,803.79 L 995.32,803.7895 A 1671257673.88848,1671257673.88848 0.0 0,1 995.3199999999999,803.7705000000037 M 1111.7484648835023,688.9648422382178 C 1137.9276969198083,706.1924113929483 1162.0044561667562,714.73 1183.69,714.73 C 1208.64,714.73 1225.66,704.46 1234.75,684.07 C 1242.07,667.85 1245.83,635.2 1245.83,586.1300000000001 L 1245.83,431.1900000000001 C 1245.83,382.7000000000001 1242.07,350.4300000000001 1234.75,334.4000000000001 C 1225.24,314.0400000000001 1208.41,303.93000000000006 1184.3,303.93000000000006 C 1161.9243084265067,303.93000000000006 1137.6771800857507,312.09392828287463 1111.8847232779294,328.5649543462713 A 13.544973619468994,13.544973619468994 0.0 0,0 1105.72,340.0301427084516 L 1105.72,677.5820782496875 A 13.572665183422533,13.572665183422533 0.0 0,0 1111.7484648835023,688.9648422382178 M 1468.3899999999978,213.69 L 1550.7900000000025,213.69 A 13.999999999999716,13.999999999999716 0.0 0,1 1564.7900000000002,227.6900000000017 L 1564.7900000000002,258.93793085062595 A 13.915072619254758,13.915072619254758 0.0 0,0 1590.6893732495985,265.29401976771715 C 1602.4644205819156,247.70076707114788 1615.5463942419583,234.21515706248746 1629.92,224.81 C 1648.1342377848323,214.0386784816971 1668.8032600533465,207.84822259533706 1692.1025278193188,206.10996093081815 A 13.254283164290522,13.254283164290522 0.0 0,1 1706.0900000000001,219.59999999999968 L 1706.0900000000001,313.57408586262727 A 15.064097561485001,15.064097561485001 0.0 0,1 1686.8211294129412,327.63688959869285 C 1674.7509509084528,324.48176870516943 1663.3701269343585,322.93 1652.65,322.93 C 1621.99,322.93 1599.02,333.2 1584.0,353.6 C 1574.68,366.06 1569.16,379.70000000000005 1567.17,394.77000000000004 C 1565.6000000000001,409.41 1564.79,427.43000000000006 1564.79,448.78000000000003 L 1564.79,789.7699999999943 A 14.000000000001705,14.000000000001705 0.0 0,1 1550.7900000000022,803.77 L 1468.3899999999976,803.77 A 14.000000000000227,14.000000000000227 0.0 0,1 1454.3899999999999,789.7699999999973 L 1454.3899999999999,227.69000000000267 A 14.000000000000313,14.000000000000313 0.0 0,1 1468.3899999999978,213.69 M 1889.3000000000002,227.69000000000275 L 1889.3000000000002,789.7699999999973 A 14.000000000000227,14.000000000000227 0.0 0,1 1875.3000000000025,803.77 L 1792.8999999999978,803.77 A 14.000000000000227,14.000000000000227 0.0 0,1 1778.9,789.7699999999973 L 1778.9,227.69000000000267 A 14.000000000000227,14.000000000000227 0.0 0,1 1792.8999999999978,213.68999999999994 L 1875.3000000000025,213.68999999999994 A 14.00000000000027,14.00000000000027 0.0 0,1 1889.3000000000002,227.69000000000275 M 1889.3000000000002,25.870000000011025 L 1889.3000000000002,113.01999999998898 A 14.000000000004377,14.000000000004377 0.0 0,1 1875.3000000000025,127.02000000000001 L 1792.8999999999978,127.02000000000001 A 14.000000000004377,14.000000000004377 0.0 0,1 1778.9,113.01999999998898 L 1778.9,25.870000000011032 A 14.000000000004377,14.000000000004377 0.0 0,1 1792.8999999999978,11.870000000000005 L 1875.3000000000025,11.870000000000005 A 14.000000000004373,14.000000000004373 0.0 0,1 1889.3000000000002,25.870000000011025 M 2103.19,25.870000000012862 L 2103.19,789.7699999999871 A 14.000000000005286,14.000000000005286 0.0 0,1 2089.1900000000023,803.77 L 2006.7899999999977,803.77 A 14.000000000005286,14.000000000005286 0.0 0,1 1992.79,789.7699999999871 L 1992.79,25.87000000001285 A 14.000000000005286,14.000000000005286 0.0 0,1 2006.7899999999977,11.870000000000005 L 2089.1900000000023,11.870000000000005 A 14.000000000005292,14.000000000005292 0.0 0,1 2103.19,25.870000000012862 M 2317.09,25.870000000012862 L 2317.09,789.7699999999871 A 14.000000000005286,14.000000000005286 0.0 0,1 2303.0900000000024,803.77 L 2220.689999999998,803.77 A 14.000000000005286,14.000000000005286 0.0 0,1 2206.69,789.7699999999871 L 2206.69,25.87000000001285 A 14.000000000005286,14.000000000005286 0.0 0,1 2220.689999999998,11.870000000000005 L 2303.0900000000024,11.870000000000005 A 14.000000000005292,14.000000000005292 0.0 0,1 2317.09,25.870000000012862 M 2779.140000000001,417.3099999999998 L 2779.1400000000003,600.15 C 2779.1400000000003,659.91 2773.2000000000003,702.27 2761.1200000000003,726.99 C 2745.2900000000004,760.23 2719.57,784.37 2683.9600000000005,799.4 C 2658.8100000000004,810.29 2630.1400000000003,815.65 2598.0600000000004,815.65 C 2541.2900000000004,815.65 2496.5600000000004,799.63 2464.1300000000006,767.54 C 2442.7400000000007,746.76 2429.6700000000005,722.8399999999999 2424.5300000000007,695.7099999999999 C 2419.580000000001,669.8 2417.0200000000004,637.9399999999999 2417.0200000000004,600.1499999999999 L 2417.0200000000004,417.30999999999983 C 2417.0200000000004,357.54999999999984 2422.9600000000005,315.23999999999984 2435.0300000000007,290.4699999999998 C 2463.3200000000006,231.3199999999998 2517.5200000000004,201.8499999999998 2598.060000000001,201.8499999999998 C 2654.860000000001,201.8499999999998 2699.560000000001,217.8699999999998 2732.0300000000007,249.9199999999998 C 2753.4200000000005,270.6999999999998 2766.4500000000007,294.6499999999998 2771.6300000000006,321.7499999999998 C 2776.5800000000004,347.6599999999998 2779.140000000001,379.50999999999976 2779.140000000001,417.3099999999998 M 2527.4100000000003,410.99000000000007 L 2527.4100000000003,606.48 C 2527.4100000000003,643.51 2532.78,670.4200000000001 2543.2400000000002,687.02 C 2555.3100000000004,705.42 2573.5200000000004,714.73 2598.05,714.73 C 2622.5800000000004,714.73 2640.79,705.4200000000001 2652.86,687.02 C 2663.36,670.42 2668.69,643.51 2668.69,606.48 L 2668.69,410.99 C 2668.69,374.0 2663.36,347.09000000000003 2652.86,330.45 C 2640.79,312.05 2622.58,302.73 2598.05,302.73 C 2573.52,302.73 2555.3100000000004,312.05 2543.2400000000002,330.45000000000005 C 2532.78,347.08000000000004 2527.4100000000003,373.99000000000007 2527.4100000000003,410.99000000000007 M 3490.243129942317,269.51 L 3380.8718603419115,269.51 A 13.635724857215703,13.635724857215703 0.0 0,1 3367.075921958164,256.66134031800385 C 3367.0198399530695,255.39965269404328 3366.9900000000007,254.27749517086602 3366.9900000000002,253.29 C 3366.9900000000002,161.25 3336.13,115.17999999999998 3274.19,115.17999999999998 C 3241.15,115.17999999999998 3217.19,128.20999999999998 3202.55,154.53999999999996 C 3193.8500000000004,170.17999999999995 3188.29,187.57999999999996 3186.53,206.59999999999997 C 3184.96,223.80999999999997 3184.15,244.15999999999997 3184.15,267.73999999999995 L 3184.15,531.6999999999999 C 3184.15,586.6999999999999 3188.52,625.8799999999999 3197.42,649.2199999999999 C 3210.4900000000002,683.4499999999999 3236.78,700.4699999999999 3276.57,700.4699999999999 C 3339.28,700.4699999999999 3370.56,648.8299999999999 3370.56,545.53 C 3370.7627875330654,543.9219304395524 3370.9187439491106,542.0556568825641 3371.035524299524,539.9352320032987 A 14.549312179571599,14.549312179571599 0.0 0,1 3385.330000000005,525.9399999999999 L 3480.026372701335,525.9399999999999 A 13.92325976374224,13.92325976374224 0.0 0,1 3493.9748522533964,539.7428363372633 C 3494.02,546.3800220382833 3494.02,551.6231687052532 3494.02,555.42 C 3494.02,631.81 3478.57,692.38 3447.52,737.0699999999999 C 3411.3,789.51 3354.11,815.65 3276.56,815.65 C 3194.0299999999997,815.65 3134.88,786.36 3099.04,727.79 C 3080.07,697.3199999999999 3068.7599999999998,663.28 3065.23,625.8599999999999 C 3062.2400000000002,594.9999999999999 3060.67,558.0099999999999 3060.67,514.8499999999999 L 3060.67,293.2599999999999 C 3060.67,217.66999999999987 3065.42,165.03999999999988 3075.12,135.7499999999999 C 3091.72,83.07999999999988 3122.81,45.51999999999988 3167.92,23.12999999999988 C 3199.35,7.719999999999882 3234.81,-0.020000000000116813 3274.75,-0.020000000000116813 C 3342.02,-0.020000000000116813 3394.27,20.55999999999988 3431.87,61.91999999999988 C 3470.85,105.65999999999988 3490.44,166.40999999999988 3490.44,243.95999999999987 C 3490.44,250.08999999999986 3490.44,258.59999999999985 3490.25,269.4899999999999 L 3490.251,269.49099999999993 A 0.011129942314544635,0.011129942314544635 0.0 0,1 3490.243129942317,269.51 M 3945.0000000000005,417.32 L 3945.0000000000005,600.16 C 3945.0000000000005,659.92 3939.0600000000004,702.28 3926.9900000000002,727.0 C 3911.1600000000003,760.24 3885.44,784.38 3849.8300000000004,799.41 C 3824.6900000000005,810.3 3796.0200000000004,815.66 3763.9300000000003,815.66 C 3707.1600000000003,815.66 3662.4300000000003,799.64 3630.0000000000005,767.55 C 3608.6100000000006,746.77 3595.5400000000004,722.8499999999999 3590.4000000000005,695.7199999999999 C 3585.4500000000007,669.81 3582.8900000000003,637.9499999999999 3582.8900000000003,600.1599999999999 L 3582.8900000000003,417.3199999999998 C 3582.8900000000003,357.55999999999983 3588.8300000000004,315.24999999999983 3600.9100000000003,290.4799999999998 C 3629.2000000000003,231.32999999999979 3683.4,201.8599999999998 3763.9400000000005,201.8599999999998 C 3820.7400000000007,201.8599999999998 3865.4400000000005,217.8799999999998 3897.9100000000003,249.92999999999978 C 3919.3,270.7099999999998 3932.3300000000004,294.6599999999998 3937.51,321.75999999999976 C 3942.46,347.6699999999998 3945.0200000000004,379.51999999999975 3945.0200000000004,417.31999999999977 L 3945.0000000000005,417.32 M 3693.2700000000004,411.00000000000006 L 3693.2700000000004,606.49 C 3693.2700000000004,643.52 3698.6400000000003,670.4300000000001 3709.1000000000004,687.03 C 3721.1800000000003,705.43 3739.3900000000003,714.74 3763.9200000000005,714.74 C 3788.4500000000007,714.74 3806.6600000000003,705.4300000000001 3818.7300000000005,687.03 C 3829.2300000000005,670.43 3834.5600000000004,643.52 3834.5600000000004,606.49 L 3834.5600000000004,411.0 C 3834.5600000000004,374.01 3829.2300000000005,347.1 3818.7300000000005,330.46 C 3806.6500000000005,312.06 3788.4400000000005,302.74 3763.9200000000005,302.74 C 3739.3900000000003,302.74 3721.1800000000007,312.06 3709.1000000000004,330.46000000000004 C 3698.6400000000003,347.09000000000003 3693.2700000000004,374.00000000000006 3693.2700000000004,411.00000000000006 M 4153.71,25.890000000012844 L 4153.71,789.7899999999871 A 14.000000000005059,14.000000000005059 0.0 0,1 4139.710000000003,803.79 L 4057.3099999999977,803.79 A 14.000000000005286,14.000000000005286 0.0 0,1 4043.31,789.7899999999871 L 4043.31,25.890000000012833 A 14.000000000005286,14.000000000005286 0.0 0,1 4057.3099999999977,11.889999999999986 L 4139.710000000003,11.889999999999986 A 14.000000000005064,14.000000000005064 0.0 0,1 4153.71,25.890000000012844 M 4367.6,25.890000000012844 L 4367.6,789.7899999999871 A 14.000000000005059,14.000000000005059 0.0 0,1 4353.600000000003,803.79 L 4271.199999999998,803.79 A 14.000000000005059,14.000000000005059 0.0 0,1 4257.200000000001,789.7899999999871 L 4257.200000000001,25.890000000012833 A 14.000000000005059,14.000000000005059 0.0 0,1 4271.199999999998,11.889999999999986 L 4353.600000000003,11.889999999999986 A 14.000000000005064,14.000000000005064 0.0 0,1 4367.6,25.890000000012844 M 4833.206564971134,527.15 L 4591.93,527.15 A 13.999999999998522,13.999999999998522 0.0 0,0 4577.93,541.149999999997 L 4577.93,580.01 C 4577.93,630.0699999999999 4582.490000000001,664.3 4591.81,682.28 C 4603.080000000001,703.86 4623.280000000001,714.74 4652.76,714.74 C 4700.25,714.74 4723.9800000000005,682.08 4723.9800000000005,617.0 C 4724.077704287982,615.9843896380908 4724.165492238127,614.8497832221524 4724.242004034678,613.5936310976383 A 14.621074694207596,14.621074694207596 0.0 0,1 4738.589999999997,599.6 L 4820.513487985613,599.6 A 14.10281598252773,14.10281598252773 0.0 0,1 4834.570197523267,614.0703614127752 C 4834.4686602693855,618.4592874279607 4834.42,621.9415095765423 4834.42,624.51 C 4834.42,685.84 4820.7300000000005,731.76 4793.25,762.43 C 4761.4,797.8499999999999 4714.48,815.67 4652.77,815.67 C 4584.5,815.67 4535.01,795.0899999999999 4504.540000000001,753.7199999999999 C 4488.320000000001,731.7599999999999 4478.240000000001,707.42 4473.870000000001,680.6999999999999 C 4469.7300000000005,654.79 4467.550000000001,625.8899999999999 4467.550000000001,593.8399999999999 L 4467.550000000001,417.5099999999999 C 4467.550000000001,357.1799999999999 4473.490000000001,314.8199999999999 4485.560000000001,289.89999999999986 C 4501.770000000001,257.04999999999984 4527.880000000001,233.08999999999986 4563.720000000001,218.06999999999988 C 4589.250000000001,207.1799999999999 4617.920000000001,201.85999999999987 4649.580000000001,201.85999999999987 C 4709.720000000001,201.85999999999987 4756.030000000001,220.06999999999988 4788.6900000000005,256.4399999999999 C 4808.280000000001,278.39999999999986 4820.7300000000005,303.1699999999999 4825.68,330.64999999999986 C 4830.63,358.3699999999999 4833.2300000000005,391.21999999999986 4833.2300000000005,429.1999999999999 L 4833.2300000000005,527.1399999999999 L 4833.2295,527.1404999999999 A 0.03243502887160939,0.03243502887160939 0.0 0,1 4833.206564971134,527.15 M 4722.780000000001,415.82999999999794 L 4722.780000000001,397.94 C 4722.780000000001,365.09 4718.030000000001,341.36 4708.330000000001,326.33 C 4697.06,308.32 4677.660000000001,299.19 4650.180000000001,299.19 C 4622.850000000001,299.19 4603.450000000002,308.31 4591.990000000002,326.33 C 4582.680000000001,341.74 4577.930000000001,365.51 4577.930000000001,397.94 L 4577.930000000001,415.82999999999794 A 14.000000000000568,14.000000000000568 0.0 0,0 4591.93,429.83 L 4708.7800000000025,429.83 A 14.000000000000114,14.000000000000114 0.0 0,0 4722.780000000001,415.82999999999794 M 5355.18,207.3994999999875 L 5355.18,300.92851709575825 A 14.485883590899343,14.485883590899343 0.0 0,1 5334.582376803362,312.70862498475265 C 5329.174528642809,310.8270933509423 5323.583472727769,309.88 5317.81,309.88 C 5303.0745184800735,309.88 5290.3091609329285,315.63705487766066 5279.386402676526,327.3122484418719 A 13.054009280565253,13.054009280565253 0.0 0,0 5276.60243171639,339.4386643969194 C 5283.159241929892,366.1325046249844 5286.34,396.5711929969808 5286.34,431.2 C 5286.34,506.56 5270.13,563.37 5237.47,602.16 C 5207.0,638.3499999999999 5163.83,656.55 5108.06,656.55 C 5097.303133022152,656.55 5084.564928672613,655.7371436423842 5069.63501994594,654.0568913331472 A 12.975041527892003,12.975041527892003 0.0 0,0 5062.145070455351,655.3471181584953 C 5046.932179773424,663.3124060899601 5039.370000000001,674.035405665366 5039.370000000001,687.8299999999999 C 5039.370000000001,700.0999999999999 5047.31,708.6099999999999 5063.140000000001,713.3599999999999 C 5072.030000000002,715.5399999999998 5102.310000000001,718.3 5153.750000000001,721.4799999999999 C 5198.870000000001,723.6299999999999 5231.720000000001,727.9999999999999 5251.6900000000005,734.1299999999999 C 5316.820000000001,753.9099999999999 5349.240000000001,798.2199999999999 5349.240000000001,867.0999999999999 C 5349.240000000001,919.3499999999999 5329.460000000001,956.9499999999999 5290.090000000001,979.68 C 5249.920000000001,1002.4499999999999 5191.350000000001,1013.91 5114.760000000001,1013.91 C 4978.220000000001,1013.91 4909.950000000001,978.3 4909.950000000001,907.0799999999999 C 4909.950000000001,872.6451577072273 4929.567276574918,845.100655079881 4968.681537313268,824.3161753388521 A 17.85794744671389,17.85794744671389 0.0 0,0 4969.348136543735,793.3042044178671 C 4964.277917620856,790.2028029452449 4959.981443039919,787.1014014726225 4956.450000000001,784.0 C 4940.43,770.93 4932.530000000001,753.91 4932.530000000001,732.94 C 4932.530000000001,705.84 4943.22,684.45 4964.570000000001,668.6200000000001 C 4971.760866940625,663.1814307083134 4981.675354211028,657.7325576827183 4994.267166404279,652.2794194545536 A 16.906877245243066,16.906877245243066 0.0 0,0 4997.246970110539,623.233119665693 C 4982.243104771276,611.8494907233423 4970.250564624877,598.932670124537 4961.200000000001,584.5200000000001 C 4938.050000000001,545.96 4926.590000000001,495.0900000000001 4926.590000000001,431.7700000000001 C 4926.590000000001,356.9900000000001 4942.800000000001,299.9900000000001 4975.270000000001,261.0100000000001 C 5005.550000000001,224.8200000000001 5049.670000000001,206.62000000000012 5107.630000000001,206.62000000000012 C 5144.470000000001,206.62000000000012 5175.130000000001,213.9400000000001 5200.050000000001,228.3500000000001 C 5211.796246948532,235.328614233719 5223.287269563288,245.255069522533 5234.528616480308,258.06833087001473 A 17.47304622556198,17.47304622556198 0.0 0,0 5263.075951448968,254.09582265777985 C 5271.421086164404,238.16043184359324 5282.035230455715,226.40200274813122 5294.850000000001,218.8800000000001 C 5310.0700000000015,210.37000000000012 5330.260000000001,206.6100000000001 5355.180000000001,207.3800000000001 L 5355.180000000001,207.3805000000001 A 208907209.1364975,208907209.1364975 0.0 0,0 5355.18,207.3994999999875 M 5039.360000000001,398.74 L 5039.360000000001,464.44 C 5039.360000000001,527.57 5061.750000000001,559.23 5106.4400000000005,559.23 C 5151.17,559.23 5173.52,527.57 5173.52,464.44 L 5173.52,398.74 C 5173.52,335.6 5151.17,303.94 5106.4400000000005,303.94 C 5061.740000000001,303.94 5039.360000000001,335.6 5039.360000000001,398.74 M 5052.240000000001,820.01 C 5051.480577975795,820.7694220242049 5050.576975498879,821.5378553267043 5049.469313141223,822.272528887479 A 3.919339043352564,3.919339043352564 0.0 0,0 5049.1252116456235,822.5271055858113 C 5031.60460393143,837.1326795204891 5022.77,853.5360755321359 5022.77,871.45 C 5022.77,888.8900000000001 5030.67,901.1600000000001 5046.6900000000005,908.6700000000001 C 5064.13,916.1800000000001 5092.42,920.1300000000001 5131.790000000001,920.1300000000001 C 5207.1900000000005,920.1300000000001 5244.790000000001,903.5300000000001 5244.790000000001,870.2600000000001 C 5244.790000000001,848.7200000000001 5229.530000000001,835.45 5198.870000000001,830.5100000000001 C 5186.410000000001,828.5200000000001 5157.120000000001,826.5600000000001 5111.010000000001,824.57 C 5098.170000000001,824.0 5078.580000000001,822.3900000000001 5052.250000000001,820.0100000000001 L 5052.240000000001,820.01 M 5790.306564971134,527.15 L 5549.030000000001,527.15 A 13.999999999998522,13.999999999998522 0.0 0,0 5535.030000000001,541.149999999997 L 5535.030000000001,580.01 C 5535.030000000001,630.0699999999999 5539.590000000001,664.3 5548.910000000001,682.28 C 5560.180000000001,703.86 5580.380000000001,714.74 5609.860000000001,714.74 C 5657.35,714.74 5681.080000000001,682.08 5681.080000000001,617.0 C 5681.180273025297,615.9844142309834 5681.26930807865,614.8498381708202 5681.346255336952,613.5937223501787 A 14.621512538644492,14.621512538644492 0.0 0,1 5695.689999999998,599.6 L 5777.625902070126,599.6 A 14.090702884883662,14.090702884883662 0.0 0,1 5791.674378479796,614.0580761884667 C 5791.571459493265,618.4527897301946 5791.52,621.9391135157232 5791.52,624.51 C 5791.52,685.84 5777.830000000001,731.76 5750.35,762.43 C 5718.5,797.8499999999999 5671.58,815.67 5609.870000000001,815.67 C 5541.6,815.67 5492.110000000001,795.0899999999999 5461.640000000001,753.7199999999999 C 5445.430000000001,731.7599999999999 5435.340000000001,707.42 5430.970000000001,680.6999999999999 C 5426.830000000001,654.79 5424.6500000000015,625.8899999999999 5424.6500000000015,593.8399999999999 L 5424.6500000000015,417.5099999999999 C 5424.6500000000015,357.1799999999999 5430.590000000001,314.8199999999999 5442.660000000002,289.89999999999986 C 5458.880000000002,257.04999999999984 5484.980000000001,233.08999999999986 5520.8200000000015,218.06999999999988 C 5546.350000000001,207.1799999999999 5575.020000000001,201.85999999999987 5606.680000000001,201.85999999999987 C 5666.830000000001,201.85999999999987 5713.130000000001,220.06999999999988 5745.790000000001,256.4399999999999 C 5765.380000000001,278.39999999999986 5777.830000000001,303.1699999999999 5782.780000000001,330.64999999999986 C 5787.7300000000005,358.3699999999999 5790.330000000001,391.21999999999986 5790.330000000001,429.1999999999999 L 5790.330000000001,527.1399999999999 L 5790.329500000001,527.1404999999999 A 0.03243502887160939,0.03243502887160939 0.0 0,1 5790.306564971134,527.15 M 5679.880000000001,429.8204999999989 L 5679.880000000001,397.94 C 5679.880000000001,365.09 5675.130000000001,341.36 5665.430000000001,326.33 C 5654.160000000001,308.32 5634.760000000001,299.19 5607.280000000002,299.19 C 5579.950000000002,299.19 5560.550000000002,308.31 5549.090000000002,326.33 C 5539.770000000002,341.74 5535.020000000002,365.51 5535.020000000002,397.94 L 5535.020000000002,415.82999999999794 A 14.000000000000568,14.000000000000568 0.0 0,0 5549.020000000001,429.83 L 5679.870500000003,429.83 A 0.00949999999969009,0.00949999999969009 0.0 0,0 5679.880000000001,429.8204999999989" />
 </g>
</svg>